<?xml version="1.0" standalone="no"?>
<!DOCTYPE svg PUBLIC "-//W3C//DTD SVG 20010904//EN"
 "http://www.w3.org/TR/2001/REC-SVG-20010904/DTD/svg10.dtd">
<svg version="1.0" xmlns="http://www.w3.org/2000/svg"
 width="1679.000000pt" height="346.000000pt" viewBox="0 0 1679.000000 346.000000"
 preserveAspectRatio="xMidYMid meet">
<metadata>
Created by potrace 1.15, written by Peter Selinger 2001-2017
</metadata>
<g transform="translate(0.000000,346.000000) scale(0.100000,-0.100000)"
fill="#FFF" stroke="none">
<path d="M1123 3441 c2 -10 217 -582 477 -1271 259 -688 470 -1253 468 -1255
-1 -1 -198 -5 -436 -7 -391 -4 -433 -3 -429 11 115 416 329 1222 326 1225 -2
2 -191 5 -419 7 l-414 4 -348 -1037 -347 -1038 1600 0 1601 0 -6 23 c-9 36
-1046 3330 -1049 3334 -2 1 -214 5 -473 8 -258 3 -489 8 -513 10 -39 4 -43 3
-38 -14z"/>
<path d="M4955 3449 c-208 -5 -391 -14 -470 -24 -735 -93 -1280 -543 -1444
-1193 -42 -163 -54 -293 -48 -517 6 -282 38 -452 128 -680 168 -432 522 -754
1004 -914 261 -86 530 -127 780 -118 252 10 419 53 651 168 l122 60 7 142 c3
78 5 308 3 511 l-3 369 -43 -57 c-156 -206 -345 -341 -547 -391 -200 -49 -514
4 -714 122 -89 53 -212 171 -271 262 -153 232 -208 608 -128 869 88 288 314
470 690 554 85 19 132 21 556 25 l462 5 0 409 0 409 -197 -2 c-109 0 -351 -5
-538 -9z"/>
<path d="M8833 3453 l-543 -3 0 -411 0 -411 548 7 c615 8 710 3 802 -43 90
-44 126 -141 100 -268 -17 -79 -70 -134 -155 -161 -56 -17 -101 -18 -672 -15
l-613 3 0 -403 0 -403 465 4 c513 3 562 0 658 -52 69 -36 117 -93 148 -175 45
-119 50 -184 56 -629 l5 -423 453 0 452 0 8 508 c8 621 1 696 -78 847 -66 124
-214 233 -362 266 -30 7 -55 15 -55 19 0 4 20 13 43 19 78 19 219 83 293 133
194 130 296 323 311 588 11 194 -26 400 -97 545 -117 237 -334 379 -670 440
-111 20 -287 23 -1097 18z"/>
<path d="M11468 3453 l-178 -3 0 -409 0 -409 589 6 c439 4 605 2 652 -7 155
-29 227 -99 216 -210 -9 -104 -67 -184 -166 -229 -74 -34 -138 -36 -766 -23
-285 5 -521 8 -523 6 -2 -2 -7 -186 -10 -409 l-5 -406 569 0 c313 0 602 -5
642 -10 142 -19 211 -73 220 -174 9 -113 -47 -218 -138 -260 -44 -20 -61 -21
-661 -24 l-617 -3 -7 -405 c-4 -223 -5 -408 -1 -411 3 -3 360 -1 793 4 726 10
797 13 898 32 452 84 682 317 750 761 22 139 19 309 -5 404 -53 209 -202 367
-434 462 l-80 33 47 20 c128 55 269 175 336 286 46 76 87 194 102 295 17 120
7 363 -20 465 -94 354 -357 548 -828 610 -91 12 -222 15 -656 13 -298 -1 -622
-4 -719 -5z"/>
<path d="M14724 3444 c47 -119 907 -2536 904 -2540 -3 -2 -201 -3 -440 -2
l-434 3 176 600 c97 330 180 610 184 623 l8 23 -419 -7 c-230 -4 -419 -8 -421
-9 -3 -2 -692 -2054 -692 -2061 0 -2 720 -4 1599 -4 l1600 0 -29 64 c-80 175
-444 1334 -891 2834 l-144 482 -456 0 c-251 0 -478 3 -504 7 -45 6 -48 5 -41
-13z"/>
<path d="M5900 3050 l0 -400 1079 0 c593 0 1106 -3 1140 -6 l61 -7 -5 344 c-3
189 -8 372 -11 407 l-6 62 -1129 0 -1129 0 0 -400z"/>
<path d="M4665 1743 c4 -225 9 -409 10 -411 1 -1 231 1 510 5 l508 6 -6 180
c-4 99 -7 281 -7 404 l0 223 -511 0 -511 0 7 -407z"/>
<path d="M6773 2143 l-873 -3 0 -1030 0 -1030 1135 0 1135 0 0 405 0 405 -432
0 c-238 0 -537 3 -664 7 l-230 6 4 226 c2 124 6 228 8 230 4 5 1017 -17 1192
-25 l122 -6 0 411 0 411 -262 -2 c-145 -2 -656 -4 -1135 -5z"/>
</g>
</svg>
